<svg xmlns="http://www.w3.org/2000/svg" viewBox="0 0 100 100" fill="none">
  <!-- Dsearch favicon — identical to the app logo, heavier strokes for 16px -->
  <rect width="100" height="100" rx="24" fill="#070b1a"/>
  <circle cx="42" cy="40" r="24" stroke="#10d48e" stroke-width="5"/>
  <g stroke="#10d48e" stroke-opacity="0.6" stroke-width="1.6">
    <line x1="42" y1="40" x2="30" y2="32"/>
    <line x1="42" y1="40" x2="55" y2="28"/>
    <line x1="42" y1="40" x2="60" y2="45"/>
    <line x1="42" y1="40" x2="32" y2="55"/>
  </g>
  <circle cx="42" cy="40" r="5" fill="#10d48e"/>
  <circle cx="30" cy="32" r="6" fill="#10d48e"/>
  <circle cx="55" cy="28" r="6" fill="#10d48e"/>
  <circle cx="60" cy="45" r="7" fill="#10d48e"/>
  <circle cx="32" cy="55" r="6.5" fill="#1d4e9e"/>
  <circle cx="50" cy="58" r="7" fill="#10d48e"/>
  <rect x="58" y="58" width="8" height="6" transform="rotate(45 62 61)" fill="#10d48e"/>
  <g transform="rotate(-45 42 40)">
    <line x1="42" y1="64" x2="42" y2="82" stroke="#10d48e" stroke-width="5" stroke-linecap="round"/>
    <line x1="50" y1="64" x2="50" y2="82" stroke="#10d48e" stroke-width="5" stroke-linecap="round"/>
    <path d="M42 64 Q46 60 50 64" stroke="#10d48e" stroke-width="5" fill="none"/>
  </g>
  <circle cx="78" cy="78" r="7" fill="#10d48e"/>
</svg>
